<?xml version="1.0" standalone="no"?>
<!DOCTYPE svg PUBLIC "-//W3C//DTD SVG 20010904//EN"
 "http://www.w3.org/TR/2001/REC-SVG-20010904/DTD/svg10.dtd">
<svg version="1.0" xmlns="http://www.w3.org/2000/svg"
 width="1200.000000pt" height="1200.000000pt" viewBox="0 0 1200.000000 1200.000000"
 preserveAspectRatio="xMidYMid meet">
<metadata>
Created by potrace 1.16, written by Peter Selinger 2001-2019
</metadata>
<g transform="translate(0.000000,1200.000000) scale(0.100000,-0.100000)"
fill="#000000" stroke="none">
<path d="M1320 7445 l0 -4555 -660 0 -660 0 0 -300 0 -300 660 0 660 0 0
-1145 0 -1145 960 0 960 0 0 1145 0 1145 4380 0 4380 0 0 300 0 300 -4380 0
-4380 0 0 4555 0 4555 -960 0 -960 0 0 -4555z"/>
<path d="M5085 9840 c-310 -22 -524 -107 -692 -275 -80 -80 -97 -105 -141
-196 -56 -115 -86 -224 -102 -369 -8 -64 -10 -436 -8 -1145 4 -1024 4 -1052
25 -1140 48 -206 109 -324 232 -445 147 -145 302 -217 556 -255 156 -23 542
-21 665 5 199 41 360 157 443 320 l38 75 -3 -305 c-3 -349 -5 -355 -88 -397
l-44 -23 -818 0 -818 0 0 -501 0 -500 1088 4 c797 3 1110 7 1172 16 300 45
547 157 686 314 93 105 157 239 197 412 21 90 21 92 24 2253 l3 2162 -690 0
-690 0 0 -237 -1 -238 -19 52 c-74 208 -240 346 -472 393 -111 23 -367 32
-543 20z m922 -1062 c25 -17 49 -45 64 -75 l24 -48 3 -698 c2 -455 -1 -718 -8
-755 -13 -71 -47 -123 -97 -148 -32 -16 -61 -19 -188 -19 -170 0 -201 10 -240
75 -20 34 -20 49 -20 810 0 760 0 776 20 810 12 21 39 45 65 58 42 22 55 23
191 20 139 -3 147 -4 186 -30z"/>
<path d="M9005 9840 c-311 -22 -548 -118 -705 -287 -79 -84 -123 -156 -166
-273 -69 -183 -67 -144 -71 -1285 -4 -1048 -1 -1164 33 -1314 71 -306 262
-515 562 -614 171 -57 290 -70 596 -64 293 5 343 14 481 85 91 47 197 153 248
247 l37 70 -2 -300 c-3 -343 -5 -350 -88 -392 l-44 -23 -818 0 -818 0 0 -500
0 -500 993 0 c988 0 1193 6 1357 36 490 89 754 355 810 814 6 55 10 808 10
2197 l0 2113 -690 0 -690 0 0 -232 0 -233 -24 57 c-85 206 -240 332 -466 378
-113 23 -368 33 -545 20z m922 -1062 c25 -17 49 -45 64 -75 l24 -48 0 -735 0
-735 -24 -48 c-15 -30 -38 -58 -64 -75 -40 -26 -44 -27 -196 -27 -146 0 -158
1 -194 23 -76 48 -72 -2 -75 840 -2 509 1 765 8 792 26 98 80 121 276 118 134
-3 142 -4 181 -30z"/>
</g>
</svg>
